<svg xmlns="http://www.w3.org/2000/svg" fill="none" overflow="visible" preserveAspectRatio="none" style="display:block" viewBox="0 0 131.25 30.457"><mask id="a" width="11" height="5" x="9" y="11" maskUnits="userSpaceOnUse" style="mask-type:luminance"><path fill="var(--fill-0, white)" fill-rule="evenodd" d="m16.506 11.947 2.677 3.87H9.59l2.676-3.87z" clip-rule="evenodd"/></mask><g mask="url(#a)"><path fill="url(#b)" fill-rule="evenodd" d="M9.05 16.344h10.673V11.42H9.051z" clip-rule="evenodd"/></g><path fill="var(--fill-0, black)" fill-rule="evenodd" d="M120.86 10.956v6.01h-4.325v-6.01L106.156.009h5.466l6.838 7.194h.495L125.784 0h5.466zm-75.204 6.01h-16.58V6.503h16.58a1.264 1.264 0 0 0 0-2.527h-16.58V.01h16.58a5.24 5.24 0 0 1 5.236 5.24 5.22 5.22 0 0 1-1.134 3.247 5.22 5.22 0 0 1 1.134 3.246 5.237 5.237 0 0 1-5.236 5.223m1.26-5.241a1.26 1.26 0 0 0-1.26-1.261H33.041v2.524h12.615a1.26 1.26 0 0 0 1.248-1.255zm6.89 5.24h4.323V.01h-4.322zm54.977-8.478c0 4.676-4.198 8.478-9.358 8.478h-5.378c-5.157 0-9.358-3.802-9.358-8.478S88.89.009 94.047.009h5.378c5.157 0 9.355 3.805 9.355 8.478zm-4.381 0c0-2.486-2.234-4.51-4.977-4.51h-5.378c-2.743 0-4.977 2.038-4.977 4.51s2.234 4.51 4.977 4.51h5.378c2.746 0 4.974-2.009 4.974-4.51zM83.409 6.053A6.047 6.047 0 0 0 77.373.009H61.605v5.593h3.965V3.977h11.803a2.076 2.076 0 0 1 2.072 2.076 2.073 2.073 0 0 1-2.072 2.073H61.605v8.84h3.965v-4.872h6.64l5.318 4.871H83.4l-5.36-4.911a6.045 6.045 0 0 0 5.366-6.001zM16.536.009h-4.828L0 16.965h5.527L14.2 4.085l8.67 12.88h5.527L16.688.01zm20.362 25.595c.21-.203.457-.36.73-.46a2.5 2.5 0 0 1 .92-.163c.322-.004.642.055.942.174.3.127.57.313.797.548l.739-.722a2.8 2.8 0 0 0-1.086-.77 3.8 3.8 0 0 0-1.454-.261 3.8 3.8 0 0 0-1.361.242 3.2 3.2 0 0 0-1.085.675c-.309.29-.556.642-.719 1.034a3.3 3.3 0 0 0-.25 1.298 3.13 3.13 0 0 0 .963 2.335 3.2 3.2 0 0 0 1.08.676c.433.163.892.244 1.355.238a4.5 4.5 0 0 0 1.32-.2c.422-.126.818-.33 1.164-.603v-2.516h-1.109v1.963a2.4 2.4 0 0 1-.392.18c-.291.1-.596.15-.905.149a2.5 2.5 0 0 1-.919-.163 2.1 2.1 0 0 1-.721-.466 2.1 2.1 0 0 1-.474-.708 2.4 2.4 0 0 1-.166-.873 2.4 2.4 0 0 1 .165-.894c.105-.269.265-.512.472-.713zm16.304 2.684 1.454 2.07h-1.262l-1.292-1.852h-1.667v1.84h-1.163V24.03h2.577c.495-.013.983.08 1.44.27.378.163.698.434.925.778.22.36.334.776.323 1.2.011.421-.102.837-.323 1.196a2.1 2.1 0 0 1-.91.78c-.033.012-.068.02-.097.035zm-1.4-3.255h-1.37v2.518h1.37c.416.03.827-.087 1.164-.331a1.17 1.17 0 0 0 .393-.932 1.14 1.14 0 0 0-.393-.929 1.8 1.8 0 0 0-1.158-.326zm16.918.874c.169.41.253.85.25 1.295a3.4 3.4 0 0 1-.25 1.302 3 3 0 0 1-.713 1.027 3.4 3.4 0 0 1-1.079.679c-.43.164-.887.246-1.347.241a3.7 3.7 0 0 1-1.36-.241 3.3 3.3 0 0 1-1.083-.682 3 3 0 0 1-.713-1.03 3.2 3.2 0 0 1-.253-1.296 3.25 3.25 0 0 1 .253-1.296c.163-.388.408-.738.713-1.027.314-.296.68-.527 1.082-.681.43-.167.89-.25 1.353-.245.462-.005.922.078 1.355.245a3.3 3.3 0 0 1 1.08.68c.305.29.546.639.712 1.026zm-.93 1.295a2.3 2.3 0 0 0-.167-.888 2.2 2.2 0 0 0-.465-.704 2 2 0 0 0-.704-.463 2.3 2.3 0 0 0-.873-.163c-.3-.004-.596.052-.872.163a2.1 2.1 0 0 0-.701.463c-.204.2-.364.44-.471.704a2.3 2.3 0 0 0-.166.888c0 .3.055.596.165.874.108.263.268.503.466.707s.44.363.704.466q.422.164.872.163c.3.001.594-.054.873-.163.265-.103.506-.262.704-.466.198-.202.358-.44.465-.702.117-.28.175-.579.175-.882zm13.516.361q-.001.978-.416 1.418c-.311.31-.742.47-1.18.442-.44.027-.87-.134-1.185-.442-.29-.291-.422-.766-.422-1.418v-3.52H76.94v3.567q0 1.38.733 2.11a2.75 2.75 0 0 0 2.036.731 2.73 2.73 0 0 0 2.036-.73q.74-.732.736-2.111v-3.567h-1.163zm14.526-2.472c.225.36.335.777.326 1.2.01.424-.104.841-.326 1.202a2.1 2.1 0 0 1-.924.775 3.5 3.5 0 0 1-1.437.27h-1.426v1.823h-1.163v-6.318h2.597c.492-.013.984.08 1.437.27.379.162.698.431.922.775zm-.857 1.2a1.13 1.13 0 0 0-.39-.929 1.8 1.8 0 0 0-1.164-.326h-1.37v2.51h1.37c.413.028.826-.088 1.164-.33.27-.23.416-.574.395-.928z" clip-rule="evenodd"/><defs><linearGradient id="b" x1="9.051" x2="19.723" y1="16.344" y2="16.344" gradientUnits="userSpaceOnUse"><stop stop-color="#03b1e5"/><stop offset="1" stop-color="#00416d"/></linearGradient></defs></svg>