<svg xmlns="http://www.w3.org/2000/svg" fill="none" overflow="visible" preserveAspectRatio="none" style="display:block" viewBox="0 0 200 48"><mask id="a" width="16" height="7" x="14" y="18" maskUnits="userSpaceOnUse" style="mask-type:luminance"><path fill="var(--fill-0, white)" fill-rule="evenodd" d="m25.152 18.83 4.078 6.099H14.615l4.078-6.1z" clip-rule="evenodd"/></mask><g mask="url(#a)"><path fill="url(#b)" fill-rule="evenodd" d="M13.792 25.758h16.262v-7.759H13.792z" clip-rule="evenodd"/></g><path fill="var(--fill-0, white)" fill-rule="evenodd" d="M184.167 17.267v9.47h-6.591v-9.47L161.762.014h8.328l10.421 11.338h.753L191.672 0H200zm-114.596 9.47H44.307V10.251H69.57c1.06-.003 1.92-.894 1.92-1.992s-.86-1.989-1.92-1.991H44.307V.014H69.57c4.406 0 7.979 3.697 7.979 8.259a8.4 8.4 0 0 1-1.729 5.116 8.4 8.4 0 0 1 1.729 5.116c-.013 4.551-3.582 8.232-7.979 8.232m1.92-8.258c0-1.098-.86-1.987-1.92-1.987H50.348v3.978h19.223c1.05-.01 1.898-.891 1.902-1.978zm10.5 8.258h6.587V.014H81.99zm83.773-13.362c0 7.37-6.396 13.362-14.259 13.362h-8.196c-7.858 0-14.259-5.992-14.259-13.362 0-7.369 6.401-13.361 14.259-13.361h8.196c7.859 0 14.254 5.997 14.254 13.361zm-6.675 0c0-3.918-3.404-7.107-7.584-7.107h-8.196c-4.18 0-7.584 3.212-7.584 7.107s3.404 7.108 7.584 7.108h8.196c4.184 0 7.579-3.166 7.579-7.108zM127.1 9.54c-.005-5.257-4.118-9.518-9.198-9.525H93.874v8.814h6.041v-2.56h17.987c1.742.002 3.156 1.466 3.156 3.271s-1.414 3.268-3.156 3.268H93.874v13.93h6.041v-7.676h10.12l8.102 7.676h8.949l-8.169-7.74c4.654-.542 8.169-4.611 8.178-9.458zM25.198.014H17.84L0 26.737h8.422l13.217-20.3 13.213 20.3h8.422L25.429.014zm31.027 40.338c.32-.32.696-.567 1.113-.725a3.7 3.7 0 0 1 1.4-.257c.492-.006.98.088 1.437.275.456.2.868.493 1.214.863l1.126-1.138a4.3 4.3 0 0 0-1.653-1.211 5.65 5.65 0 0 0-2.217-.413 5.6 5.6 0 0 0-2.074.38c-.612.239-1.175.6-1.653 1.065a4.8 4.8 0 0 0-1.095 1.629 5.3 5.3 0 0 0-.381 2.047c-.01.703.12 1.4.38 2.05a5 5 0 0 0 1.087 1.63 4.9 4.9 0 0 0 1.644 1.064 5.5 5.5 0 0 0 2.066.376c.682 0 1.36-.107 2.012-.316a5.2 5.2 0 0 0 1.773-.95v-3.965h-1.689v3.093q-.285.17-.598.285a4.1 4.1 0 0 1-1.378.233 3.7 3.7 0 0 1-1.401-.256 3.2 3.2 0 0 1-1.1-.735 3.25 3.25 0 0 1-.722-1.115 3.8 3.8 0 0 1-.253-1.376c-.004-.482.08-.961.253-1.409.16-.423.403-.807.718-1.124zm24.844 4.23 2.216 3.262h-1.923l-1.968-2.918h-2.54v2.9H75.08V37.87h3.927a5.2 5.2 0 0 1 2.194.427 3.24 3.24 0 0 1 1.41 1.225c.337.568.51 1.224.492 1.89a3.5 3.5 0 0 1-.492 1.886c-.337.542-.82.97-1.388 1.23-.049.018-.102.032-.146.055zm-2.132-5.13h-2.088v3.97h2.088a2.62 2.62 0 0 0 1.773-.524c.403-.37.625-.91.598-1.468.031-.558-.19-1.1-.598-1.464a2.67 2.67 0 0 0-1.764-.514zm25.779 1.376c.257.648.386 1.342.381 2.042.005.703-.124 1.4-.381 2.051a4.8 4.8 0 0 1-1.086 1.62 5.2 5.2 0 0 1-1.644 1.07 5.5 5.5 0 0 1-2.053.38 5.5 5.5 0 0 1-2.074-.38 5 5 0 0 1-1.649-1.075 4.7 4.7 0 0 1-1.086-1.624 5.3 5.3 0 0 1-.385-2.042c-.01-.7.124-1.395.385-2.042a4.8 4.8 0 0 1 1.086-1.62 5 5 0 0 1 1.65-1.073 5.4 5.4 0 0 1 2.06-.386 5.4 5.4 0 0 1 2.066.386c.611.245 1.17.61 1.644 1.074a4.9 4.9 0 0 1 1.086 1.615zm-1.418 2.043c.004-.48-.08-.955-.253-1.4a3.5 3.5 0 0 0-.709-1.11 3.1 3.1 0 0 0-1.073-.73 3.4 3.4 0 0 0-1.33-.257 3.4 3.4 0 0 0-1.33.257 3.2 3.2 0 0 0-1.067.73 3.3 3.3 0 0 0-.719 1.11c-.172.445-.257.92-.252 1.4 0 .47.084.938.252 1.376.165.416.408.794.71 1.115.301.321.669.572 1.072.734.426.172.873.26 1.33.257.457.002.904-.085 1.33-.257a3 3 0 0 0 1.072-.734 3.5 3.5 0 0 0 .71-1.106 3.7 3.7 0 0 0 .266-1.39zm20.597.569q-.001 1.541-.634 2.234a2.3 2.3 0 0 1-1.799.698 2.33 2.33 0 0 1-1.805-.698c-.443-.459-.642-1.206-.642-2.234v-5.548h-1.773v5.621q0 2.176 1.117 3.327a4.1 4.1 0 0 0 3.103 1.152 4.08 4.08 0 0 0 3.102-1.152c.749-.768 1.126-1.877 1.122-3.327v-5.62h-1.773zm22.135-3.897c.342.568.51 1.224.497 1.89a3.6 3.6 0 0 1-.497 1.896 3.2 3.2 0 0 1-1.409 1.22 5.1 5.1 0 0 1-2.19.427h-2.172v2.873h-1.773V37.89h3.959a5.1 5.1 0 0 1 2.189.427 3.2 3.2 0 0 1 1.405 1.22zm-1.307 1.892a1.81 1.81 0 0 0-.594-1.464 2.7 2.7 0 0 0-1.773-.513h-2.088v3.955h2.088a2.66 2.66 0 0 0 1.773-.519c.412-.363.634-.905.603-1.463z" clip-rule="evenodd"/><defs><linearGradient id="b" x1="13.792" x2="30.054" y1="25.758" y2="25.758" gradientUnits="userSpaceOnUse"><stop stop-color="#03b1e5"/><stop offset="1" stop-color="#00416d"/></linearGradient></defs></svg>