<svg xmlns="http://www.w3.org/2000/svg" fill="none" overflow="visible" preserveAspectRatio="none" style="display:block" viewBox="0 0 22 22"><g clip-path="url(#a)"><path fill="var(--fill-0, #444444)" d="M14.377 0H7.624C1.46 0 0 1.46 0 7.624v6.753c0 6.163 1.46 7.624 7.624 7.624h6.753c6.163 0 7.624-1.461 7.624-7.624V7.624C22 1.46 20.525 0 14.377 0m3.384 15.694h-1.597c-.605 0-.792-.48-1.88-1.582-.945-.917-1.364-1.039-1.597-1.039-.33 0-.423.093-.423.545v1.443c0 .387-.121.62-1.146.62-1.694 0-3.573-1.025-4.891-2.933C4.239 9.95 3.695 7.856 3.695 7.423c0-.233.093-.451.54-.451h1.601c.405 0 .56.186.717.62.79 2.284 2.109 4.285 2.653 4.285.2 0 .293-.093.293-.605v-2.36c-.061-1.088-.634-1.181-.634-1.567 0-.187.154-.373.401-.373h2.517c.34 0 .466.186.466.587v3.183c0 .344.153.466.246.466.201 0 .373-.122.745-.495 1.15-1.289 1.973-3.276 1.973-3.276.107-.233.294-.451.699-.451h1.6c.48 0 .587.247.48.59-.2.931-2.16 3.696-2.16 3.696-.168.279-.233.4 0 .712.172.233.731.716 1.103 1.15.684.776 1.21 1.428 1.35 1.879.158.447-.075.68-.526.68z"/></g><defs><clipPath id="a"><path fill="#fff" d="M0 0h22v22H0z"/></clipPath></defs></svg>