<svg xmlns="http://www.w3.org/2000/svg" fill="none" overflow="visible" preserveAspectRatio="none" style="display:block" viewBox="0 0 28 28"><path fill="var(--fill-0, #444444)" d="M13.999 2.334C7.559 2.334 2.332 7.56 2.332 14s5.227 11.667 11.667 11.667S25.665 20.44 25.665 14 20.44 2.334 14 2.334m5.413 7.933c-.175 1.843-.933 6.323-1.318 8.388-.164.875-.49 1.167-.794 1.202-.676.058-1.19-.444-1.843-.875-1.027-.677-1.61-1.097-2.602-1.75-1.155-.758-.408-1.178.257-1.855.175-.175 3.162-2.894 3.22-3.139a.23.23 0 0 0-.058-.21c-.07-.058-.164-.035-.245-.023-.105.023-1.739 1.108-4.924 3.255-.466.315-.886.479-1.26.467-.42-.012-1.213-.234-1.808-.432-.735-.233-1.307-.361-1.26-.77.023-.21.315-.42.863-.642 3.407-1.481 5.67-2.461 6.802-2.928 3.243-1.353 3.908-1.587 4.352-1.587.093 0 .315.024.455.14a.46.46 0 0 1 .163.316c-.012.07.012.28 0 .443"/></svg>