<svg xmlns="http://www.w3.org/2000/svg" fill="none" overflow="visible" preserveAspectRatio="none" style="display:block" viewBox="0 0 28 28"><path fill="var(--fill-0, #444444)" d="M11.665 17.5 17.72 14l-6.055-3.5zm13.487-9.135c.152.549.257 1.284.327 2.217.081.933.116 1.738.116 2.438l.07.98c0 2.555-.186 4.433-.513 5.635-.292 1.05-.968 1.727-2.018 2.018-.549.152-1.552.257-3.092.327a78 78 0 0 1-4.188.117l-1.855.07c-4.889 0-7.934-.187-9.135-.514-1.05-.291-1.727-.968-2.019-2.018-.151-.548-.256-1.283-.326-2.216a28 28 0 0 1-.117-2.439l-.07-.98c0-2.555.187-4.433.513-5.635.292-1.05.969-1.727 2.019-2.018.548-.152 1.551-.257 3.091-.327a78 78 0 0 1 4.189-.116l1.855-.07c4.888 0 7.933.186 9.135.513 1.05.291 1.726.968 2.018 2.018"/></svg>