<svg xmlns="http://www.w3.org/2000/svg" fill="none" overflow="visible" preserveAspectRatio="none" style="display:block" viewBox="0 0 28 28"><path fill="var(--fill-0, #444444)" d="M14 10.355A3.653 3.653 0 0 0 10.355 14 3.653 3.653 0 0 0 14 17.645 3.653 3.653 0 0 0 17.645 14 3.653 3.653 0 0 0 14 10.355M24.932 14c0-1.51.013-3.005-.071-4.512-.085-1.75-.484-3.303-1.764-4.583-1.283-1.282-2.833-1.678-4.583-1.763-1.51-.085-3.005-.071-4.512-.071-1.509 0-3.005-.014-4.511.07-1.75.086-3.303.485-4.583 1.764-1.283 1.283-1.68 2.833-1.764 4.583-.085 1.51-.07 3.005-.07 4.512s-.015 3.005.07 4.512c.085 1.75.484 3.303 1.764 4.583 1.282 1.282 2.833 1.678 4.583 1.763 1.509.085 3.005.071 4.511.071 1.51 0 3.005.014 4.512-.07 1.75-.086 3.303-.485 4.583-1.765 1.282-1.282 1.679-2.832 1.764-4.582.087-1.507.07-3.003.07-4.512M14 19.608A5.6 5.6 0 0 1 8.39 14 5.6 5.6 0 0 1 14 8.392 5.6 5.6 0 0 1 19.608 14 5.6 5.6 0 0 1 14 19.608m5.837-10.136c-.724 0-1.31-.585-1.31-1.31s.586-1.31 1.31-1.31a1.308 1.308 0 0 1 .927 2.237 1.3 1.3 0 0 1-.927.383"/></svg>